<mxfile host="app.diagrams.net" agent="Mozilla/5.0 (Windows NT 10.0; Win64; x64) AppleWebKit/537.36 (KHTML, like Gecko) Chrome/134.0.0.0 Safari/537.36" version="26.1.3">
  <diagram name="Página-1" id="uG_n1GOWytFgsOYveIxq">
    <mxGraphModel dx="880" dy="468" grid="1" gridSize="10" guides="1" tooltips="1" connect="1" arrows="1" fold="1" page="1" pageScale="1" pageWidth="827" pageHeight="1169" math="0" shadow="0">
      <root>
        <mxCell id="0" />
        <mxCell id="1" parent="0" />
        <mxCell id="Gb_ujNdLhD_Cdr3dWjTn-1" value="Funcionários, cozinheiros, Faxineiras e etc" style="whiteSpace=wrap;html=1;aspect=fixed;" vertex="1" parent="1">
          <mxGeometry x="170" y="120" width="100" height="100" as="geometry" />
        </mxCell>
        <mxCell id="Gb_ujNdLhD_Cdr3dWjTn-2" value="" style="endArrow=none;html=1;rounded=0;" edge="1" parent="1">
          <mxGeometry width="50" height="50" relative="1" as="geometry">
            <mxPoint x="240" y="300" as="sourcePoint" />
            <mxPoint x="240" y="220" as="targetPoint" />
          </mxGeometry>
        </mxCell>
        <mxCell id="Gb_ujNdLhD_Cdr3dWjTn-3" value="CHEFE" style="shape=hexagon;perimeter=hexagonPerimeter2;whiteSpace=wrap;html=1;fixedSize=1;" vertex="1" parent="1">
          <mxGeometry x="180" y="300" width="120" height="80" as="geometry" />
        </mxCell>
        <mxCell id="Gb_ujNdLhD_Cdr3dWjTn-4" value="HOTEL" style="ellipse;whiteSpace=wrap;html=1;aspect=fixed;" vertex="1" parent="1">
          <mxGeometry x="370" y="70" width="120" height="120" as="geometry" />
        </mxCell>
        <mxCell id="Gb_ujNdLhD_Cdr3dWjTn-5" value="" style="endArrow=classic;startArrow=classic;html=1;rounded=0;exitX=1.01;exitY=0.34;exitDx=0;exitDy=0;exitPerimeter=0;" edge="1" parent="1" source="Gb_ujNdLhD_Cdr3dWjTn-1">
          <mxGeometry width="50" height="50" relative="1" as="geometry">
            <mxPoint x="280" y="150" as="sourcePoint" />
            <mxPoint x="370" y="120" as="targetPoint" />
          </mxGeometry>
        </mxCell>
        <mxCell id="Gb_ujNdLhD_Cdr3dWjTn-6" value="" style="endArrow=classic;startArrow=classic;html=1;rounded=0;" edge="1" parent="1">
          <mxGeometry width="50" height="50" relative="1" as="geometry">
            <mxPoint x="490" y="140" as="sourcePoint" />
            <mxPoint x="560" y="180" as="targetPoint" />
          </mxGeometry>
        </mxCell>
        <mxCell id="Gb_ujNdLhD_Cdr3dWjTn-7" value="Quartos, Banheiros, telefone de reserva" style="whiteSpace=wrap;html=1;aspect=fixed;" vertex="1" parent="1">
          <mxGeometry x="560" y="290" width="110" height="110" as="geometry" />
        </mxCell>
        <mxCell id="Gb_ujNdLhD_Cdr3dWjTn-8" value="" style="endArrow=none;html=1;rounded=0;" edge="1" parent="1">
          <mxGeometry width="50" height="50" relative="1" as="geometry">
            <mxPoint x="604.5" y="470" as="sourcePoint" />
            <mxPoint x="604.5" y="400" as="targetPoint" />
          </mxGeometry>
        </mxCell>
        <mxCell id="Gb_ujNdLhD_Cdr3dWjTn-9" value="Sala de alimentação, Festa, piscina, Lavanderia e Etc" style="whiteSpace=wrap;html=1;aspect=fixed;" vertex="1" parent="1">
          <mxGeometry x="550" y="470" width="110" height="110" as="geometry" />
        </mxCell>
        <mxCell id="Gb_ujNdLhD_Cdr3dWjTn-12" value="" style="ellipse;whiteSpace=wrap;html=1;" vertex="1" parent="1">
          <mxGeometry x="555" y="140" width="120" height="80" as="geometry" />
        </mxCell>
        <mxCell id="Gb_ujNdLhD_Cdr3dWjTn-13" value="" style="endArrow=none;html=1;rounded=0;entryX=0.608;entryY=1.05;entryDx=0;entryDy=0;entryPerimeter=0;exitX=0.573;exitY=-0.027;exitDx=0;exitDy=0;exitPerimeter=0;" edge="1" parent="1" source="Gb_ujNdLhD_Cdr3dWjTn-7" target="Gb_ujNdLhD_Cdr3dWjTn-12">
          <mxGeometry width="50" height="50" relative="1" as="geometry">
            <mxPoint x="610" y="280" as="sourcePoint" />
            <mxPoint x="660" y="230" as="targetPoint" />
          </mxGeometry>
        </mxCell>
      </root>
    </mxGraphModel>
  </diagram>
</mxfile>
